<svg version="1.1" id="Layer_1" xmlns="http://www.w3.org/2000/svg" xmlns:xlink="http://www.w3.org/1999/xlink" x="0px" y="0px"
	 width="100%" viewBox="0 0 200 200" enable-background="new 0 0 200 200" xml:space="preserve">
<path fill="#000000" opacity="1.000000" stroke="none" 
	d="
M142.000000,201.000000 
	C94.666672,201.000000 47.833340,201.000000 1.000006,201.000000 
	C1.000004,134.333344 1.000004,67.666679 1.000002,1.000015 
	C67.666656,1.000010 134.333313,1.000010 200.999969,1.000005 
	C200.999985,67.666649 200.999985,134.333298 201.000000,200.999969 
	C181.500000,201.000000 162.000000,201.000000 142.000000,201.000000 
M85.538971,90.991241 
	C82.760071,90.991241 79.981171,90.991241 77.157539,90.991241 
	C77.157539,81.727554 77.157539,72.977837 77.157539,63.748734 
	C95.755096,63.748734 114.142403,63.748734 132.716095,63.748734 
	C132.716095,56.840321 132.716095,50.413322 132.716095,43.752525 
	C106.156403,43.752525 79.772110,43.752525 53.406803,43.752525 
	C53.406803,80.313004 53.406803,116.546715 53.406803,152.709961 
	C61.404671,152.709961 69.113251,152.709961 77.137260,152.709961 
	C77.137260,138.402649 77.137260,124.475746 77.137260,110.058731 
	C93.843277,110.058731 110.227776,110.058731 126.658066,110.058731 
	C126.658066,103.482849 126.658066,97.408600 126.658066,90.991241 
	C113.115356,90.991241 99.823486,90.991241 85.538971,90.991241 
M127.001091,139.596848 
	C125.645981,147.635147 129.027878,152.875229 136.183899,153.825119 
	C143.167969,154.752182 148.804382,150.752396 149.616791,144.292709 
	C150.284225,138.985764 147.370346,134.428391 142.220764,132.725128 
	C136.019501,130.674011 130.622040,132.868073 127.001091,139.596848 
z"/>
<path fill="#FAFAFA" opacity="1.000000" stroke="none" 
	d="
M86.035294,90.991241 
	C99.823486,90.991241 113.115356,90.991241 126.658066,90.991241 
	C126.658066,97.408600 126.658066,103.482849 126.658066,110.058731 
	C110.227776,110.058731 93.843277,110.058731 77.137260,110.058731 
	C77.137260,124.475746 77.137260,138.402649 77.137260,152.709961 
	C69.113251,152.709961 61.404671,152.709961 53.406803,152.709961 
	C53.406803,116.546715 53.406803,80.313004 53.406803,43.752525 
	C79.772110,43.752525 106.156403,43.752525 132.716095,43.752525 
	C132.716095,50.413322 132.716095,56.840321 132.716095,63.748734 
	C114.142403,63.748734 95.755096,63.748734 77.157539,63.748734 
	C77.157539,72.977837 77.157539,81.727554 77.157539,90.991241 
	C79.981171,90.991241 82.760071,90.991241 86.035294,90.991241 
z"/>
<path fill="#F7F7F7" opacity="1.000000" stroke="none" 
	d="
M127.074631,139.224457 
	C130.622040,132.868073 136.019501,130.674011 142.220764,132.725128 
	C147.370346,134.428391 150.284225,138.985764 149.616791,144.292709 
	C148.804382,150.752396 143.167969,154.752182 136.183899,153.825119 
	C129.027878,152.875229 125.645981,147.635147 127.074631,139.224457 
z"/>
</svg>