<svg version="1.1" id="Layer_1" xmlns="http://www.w3.org/2000/svg" xmlns:xlink="http://www.w3.org/1999/xlink" x="0px" y="0px"
	 width="100%" viewBox="0 0 500 100" enable-background="new 0 0 500 100" xml:space="preserve">
<path fill="#FFFFFF" opacity="1.000000" stroke="none" 
	d="
M369.000000,101.000000 
	C246.051041,101.000000 123.602074,101.000000 1.076557,101.000000 
	C1.076557,67.731735 1.076557,34.463261 1.076557,1.097389 
	C167.666641,1.097389 334.333313,1.097389 500.972473,1.097389 
	C500.972473,34.397808 500.972473,67.698921 500.972473,101.000000 
	C457.129974,101.000000 413.315002,101.000000 369.000000,101.000000 
M32.073112,22.693708 
	C32.011707,40.367165 31.941563,58.040607 31.918344,75.714111 
	C31.917332,76.484406 32.347008,77.255264 32.901039,78.240532 
	C32.901039,78.240532 33.040295,78.604256 33.745899,78.984116 
	C63.126328,78.982903 92.506775,78.992592 121.887100,78.935860 
	C122.933769,78.933838 123.979164,78.274727 125.942184,77.978691 
	C128.376221,78.266655 130.810257,78.554611 133.984940,79.066185 
	C138.979111,79.049568 143.973267,79.032951 149.821075,79.002121 
	C152.535431,78.635452 155.249802,78.268791 158.527130,78.534256 
	C165.833511,78.621857 173.139908,78.709457 181.313507,78.648796 
	C186.389130,78.693451 191.464767,78.738113 197.537064,78.900604 
	C207.543335,78.845474 217.549591,78.790352 228.416534,78.624413 
	C234.806274,78.682617 241.196030,78.740822 248.577499,78.925056 
	C253.040833,78.946632 257.509766,79.117271 261.965973,78.949089 
	C266.698700,78.770462 271.419312,78.270447 276.857239,78.298920 
	C281.808228,78.482925 286.759216,78.666931 292.688141,78.985718 
	C303.619659,78.901764 314.551208,78.817810 326.357880,78.713829 
	C333.670227,78.718628 340.989899,78.933556 348.293213,78.678909 
	C359.202148,78.298538 370.099548,77.587486 381.170258,77.813087 
	C382.330048,78.207420 383.489014,78.941719 384.649719,78.944374 
	C398.838989,78.976852 413.028534,78.902008 428.102783,78.841461 
	C431.971130,78.824631 435.839508,78.807808 440.674408,78.915596 
	C449.315460,78.942635 457.960785,78.820869 466.595520,79.068024 
	C470.180664,79.170647 471.092560,77.853058 471.060730,74.461861 
	C470.915771,59.007851 471.025116,43.551582 470.949524,28.096592 
	C470.942810,26.724825 470.262665,25.356354 469.940643,23.110554 
	C468.541504,22.652819 467.154388,21.848360 465.741058,21.799246 
	C460.493530,21.616901 455.237427,21.683214 449.284027,21.229557 
	C442.132294,21.153893 434.979492,20.969997 427.829193,21.039814 
	C422.890137,21.088041 417.954498,21.486900 412.078003,21.722565 
	C405.709900,21.637348 399.341797,21.552134 392.350403,21.158464 
	C390.886353,21.486046 389.422333,21.813627 387.061035,21.859272 
	C369.719879,21.944115 352.378723,22.028959 334.477814,21.476627 
	C329.323944,21.629522 324.170074,21.782415 318.501068,21.743465 
	C318.322601,21.784971 318.144135,21.826479 317.049713,21.667196 
	C295.378998,21.731697 273.708252,21.796200 251.509705,21.691879 
	C251.325607,21.706738 251.141495,21.721596 250.565155,21.319769 
	C249.730316,21.489071 248.895462,21.658373 247.129501,21.661875 
	C241.766571,21.804636 236.403641,21.947397 230.480835,21.453495 
	C224.045319,21.303011 217.609192,21.024521 211.174515,21.054264 
	C207.789429,21.069910 204.406845,21.624435 200.113098,21.674070 
	C193.357483,21.755445 186.601883,21.836819 179.109070,21.574196 
	C173.366638,21.384104 167.624207,21.070778 161.881790,21.071253 
	C159.891586,21.071417 157.901443,21.850052 154.982986,22.232374 
	C145.984879,22.139221 136.986755,22.046068 127.376945,21.394150 
	C118.590431,21.565540 109.803909,21.736931 100.284355,21.664869 
	C99.789490,21.524197 99.294624,21.383524 98.066650,20.966511 
	C77.491936,20.940306 56.917217,20.904465 36.342518,20.914221 
	C35.226192,20.914749 34.110043,21.296776 32.836315,21.839399 
	C32.836315,21.839399 32.497562,21.995672 32.073112,22.693708 
z"/>
<path fill="#E9EAFB" opacity="1.000000" stroke="none" 
	d="
M469.895264,23.986355 
	C470.262665,25.356354 470.942810,26.724825 470.949524,28.096592 
	C471.025116,43.551582 470.915771,59.007851 471.060730,74.461861 
	C471.092560,77.853058 470.180664,79.170647 466.595520,79.068024 
	C457.960785,78.820869 449.315460,78.942635 440.277344,78.412659 
	C439.880249,73.192833 439.880249,68.475937 439.880249,63.759037 
	C439.399841,63.536388 438.919464,63.313740 438.439056,63.091091 
	C434.698700,68.345718 430.958344,73.600342 427.217987,78.854965 
	C413.028534,78.902008 398.838989,78.976852 384.649719,78.944374 
	C383.489014,78.941719 382.330048,78.207420 381.271973,77.136871 
	C390.207825,70.920219 393.435089,63.797756 391.033905,55.140701 
	C388.646606,46.533710 381.686981,41.839321 371.310669,41.838535 
	C362.146057,41.837841 352.981232,41.867714 343.816986,41.811085 
	C342.184326,41.800999 340.553894,41.434299 338.922424,41.232265 
	C338.942596,40.660244 338.962799,40.088223 338.982971,39.516205 
	C346.794464,37.989918 354.784485,39.057297 362.675934,38.868500 
	C370.930084,38.671028 379.192596,38.824379 387.958282,38.824379 
	C387.958282,32.752716 387.958282,27.446964 387.958282,22.141211 
	C389.422333,21.813627 390.886353,21.486046 392.693481,21.693035 
	C402.246124,32.146675 411.455688,42.065742 420.898010,52.235477 
	C423.570496,49.026249 425.610168,46.182182 428.057526,43.748013 
	C430.555969,41.263042 430.229645,39.557251 427.814636,37.188976 
	C422.724030,32.196972 417.931915,26.900587 413.017334,21.729076 
	C417.954498,21.486900 422.890137,21.088041 427.829193,21.039814 
	C434.979492,20.969997 442.132294,21.153893 449.499634,21.773525 
	C442.362213,30.876734 434.959412,39.394066 427.691833,48.025257 
	C425.916290,50.133923 423.452209,52.525440 423.259338,54.942871 
	C422.674500,62.272713 423.047699,69.678993 423.047699,78.176361 
	C431.541107,68.208817 439.198364,59.119957 446.970612,50.130543 
	C454.551025,41.362938 462.248962,32.696953 469.895264,23.986355 
z"/>
<path fill="#6B75E3" opacity="1.000000" stroke="none" 
	d="
M387.509644,22.000242 
	C387.958282,27.446964 387.958282,32.752716 387.958282,38.824379 
	C379.192596,38.824379 370.930084,38.671028 362.675934,38.868500 
	C354.784485,39.057297 346.794464,37.989918 338.982971,39.516205 
	C338.962799,40.088223 338.942596,40.660244 338.922424,41.232265 
	C340.553894,41.434299 342.184326,41.800999 343.816986,41.811085 
	C352.981232,41.867714 362.146057,41.837841 371.310669,41.838535 
	C381.686981,41.839321 388.646606,46.533710 391.033905,55.140701 
	C393.435089,63.797756 390.207825,70.920219 381.187775,76.738892 
	C370.099548,77.587486 359.202148,78.298538 348.293213,78.678909 
	C340.989899,78.933556 333.670227,78.718628 325.785461,78.293686 
	C325.150330,74.047676 325.328400,70.198532 324.961456,66.402061 
	C324.541565,62.057503 326.426422,61.093189 330.413055,61.154415 
	C343.566040,61.356434 356.724182,61.252693 369.880066,61.195618 
	C371.443634,61.188835 373.005249,60.745369 374.567780,60.504322 
	C374.521973,60.000946 374.476166,59.497570 374.430359,58.994194 
	C372.689301,58.911232 370.948425,58.761078 369.207153,58.756496 
	C359.714813,58.731518 350.218170,58.921703 340.731049,58.697350 
	C327.682220,58.388767 319.037689,47.597084 322.098602,35.575420 
	C323.843170,28.723593 328.828339,24.780226 335.037567,22.113804 
	C352.378723,22.028959 369.719879,21.944115 387.509644,22.000242 
z"/>
<path fill="#2F3DD7" opacity="1.000000" stroke="none" 
	d="
M179.846268,21.918194 
	C186.601883,21.836819 193.357483,21.755445 200.625580,22.142624 
	C210.898407,34.009468 220.658752,45.407753 231.040710,57.531979 
	C231.040710,44.987644 231.040710,33.538898 231.040710,22.090157 
	C236.403641,21.947397 241.766571,21.804636 247.591736,22.225330 
	C248.051178,33.043346 248.106308,43.298355 248.027527,53.552334 
	C247.962860,61.968529 247.739044,70.383499 247.585754,78.799026 
	C241.196030,78.740822 234.806274,78.682617 227.805237,78.382065 
	C217.473816,66.735657 207.753693,55.331600 197.929199,43.669212 
	C197.593918,43.929218 197.363022,44.447548 197.055237,45.431145 
	C196.832367,56.858532 196.686371,67.820648 196.540390,78.782776 
	C191.464767,78.738113 186.389130,78.693451 180.726181,78.289413 
	C180.041336,59.259418 179.943802,40.588806 179.846268,21.918194 
z"/>
<path fill="#2835C0" opacity="1.000000" stroke="none" 
	d="
M127.988640,21.952915 
	C136.986755,22.046068 145.984879,22.139221 155.655945,22.537159 
	C176.509537,28.190983 183.874008,52.997581 169.943863,68.372612 
	C166.563095,72.104042 161.989349,74.754570 157.964157,77.902122 
	C155.249802,78.268791 152.535431,78.635452 149.055786,78.787262 
	C143.275085,78.662453 138.259689,78.752510 133.244293,78.842567 
	C130.810257,78.554611 128.376221,78.266655 125.279594,77.660248 
	C115.066124,74.637856 108.124603,68.826294 105.101212,59.334316 
	C99.456619,41.613045 108.826248,26.591261 127.988640,21.952915 
M132.799454,38.811203 
	C125.434486,38.265091 120.349350,43.911304 120.441093,50.233349 
	C120.542480,57.219574 125.277557,61.144230 133.604767,61.256020 
	C138.097900,61.316345 142.593582,61.327541 147.086273,61.252205 
	C155.325729,61.114052 160.206558,56.931847 160.187775,50.130951 
	C160.168808,43.273563 155.249786,38.947662 147.216827,38.822559 
	C142.723969,38.752590 138.229095,38.809975 132.799454,38.811203 
z"/>
<path fill="#222DA4" opacity="1.000000" stroke="none" 
	d="
M98.799759,21.242851 
	C99.294624,21.383524 99.789490,21.524197 100.636536,22.259209 
	C100.751640,27.944626 100.514549,33.035702 100.159851,37.990280 
	C99.943871,37.790466 99.845520,37.727150 99.747162,37.663826 
	C99.883446,37.848572 100.019722,38.033321 99.808533,38.459534 
	C82.943085,38.782780 66.425110,38.864559 49.907143,38.946339 
	C49.896767,39.866093 49.886387,40.785843 49.876007,41.705597 
	C66.805832,41.826324 83.747437,41.685596 101.342819,41.787987 
	C100.926125,47.711098 100.561813,52.889576 99.873032,57.775322 
	C96.923996,57.320736 94.299904,57.028149 91.674812,57.018993 
	C78.123894,56.971718 64.572716,56.997040 51.021633,56.997040 
	C51.021885,57.361279 51.022133,57.725517 51.022381,58.089756 
	C67.395691,58.089756 83.768997,58.089756 99.802002,58.339195 
	C83.307747,58.713837 67.153778,58.839035 50.710495,58.948837 
	C50.304813,59.276371 50.188442,59.619301 49.975235,60.424255 
	C49.878391,66.629211 49.878391,72.372154 49.878391,78.604256 
	C43.895641,78.604256 38.467968,78.604256 33.040295,78.604256 
	C33.040295,78.604256 32.901039,78.240532 32.769108,77.665695 
	C32.590641,58.725792 32.544102,40.360733 32.497562,21.995672 
	C32.497562,21.995672 32.836315,21.839399 33.378593,21.724249 
	C45.909626,21.621958 57.898659,21.690329 69.887039,21.630157 
	C79.525017,21.581785 89.162216,21.377792 98.799759,21.242851 
M50.518009,37.403999 
	C50.518009,37.403999 50.587532,37.514431 50.518009,37.403999 
z"/>
<path fill="#4F5BDD" opacity="1.000000" stroke="none" 
	d="
M291.710205,78.850937 
	C286.759216,78.666931 281.808228,78.482925 276.554749,77.645218 
	C276.252258,64.286827 276.252258,51.582123 276.252258,38.279903 
	C267.680450,38.279903 259.899994,38.279903 252.003662,38.014999 
	C251.602951,37.503471 251.318130,37.256847 250.964447,36.549034 
	C250.944641,31.721191 250.993698,27.354546 251.270767,22.863026 
	C251.678360,22.445669 251.857941,22.153185 252.037521,21.860703 
	C273.708252,21.796200 295.378998,21.731697 317.595306,21.992579 
	C318.294006,22.617311 318.525452,22.832253 318.900909,23.425997 
	C318.928162,28.271362 318.889832,32.653519 318.627899,37.184746 
	C318.235565,37.649197 318.066803,37.964569 317.442688,38.370628 
	C309.211182,38.461323 301.435089,38.461323 292.948456,38.461323 
	C292.948456,51.845139 292.948456,64.431145 292.727905,77.138504 
	C292.347504,77.550011 292.187622,77.840172 291.961609,78.316322 
	C291.895477,78.502312 291.710205,78.850937 291.710205,78.850937 
z"/>
<path fill="#E0E2F9" opacity="1.000000" stroke="none" 
	d="
M50.999813,58.964237 
	C67.153778,58.839035 83.307747,58.713837 99.797379,58.296799 
	C100.133049,58.004967 100.197502,58.068058 100.197502,58.068058 
	C100.561813,52.889576 100.926125,47.711098 101.342819,41.787987 
	C83.747437,41.685596 66.805832,41.826324 49.876007,41.705597 
	C49.886387,40.785843 49.896767,39.866093 49.907143,38.946339 
	C66.425110,38.864559 82.943085,38.782780 99.811523,38.400299 
	C100.161995,38.099590 100.277466,38.126778 100.277466,38.126778 
	C100.514549,33.035702 100.751640,27.944626 101.003059,22.380936 
	C109.803909,21.736931 118.590431,21.565540 127.682793,21.673534 
	C108.826248,26.591261 99.456619,41.613045 105.101212,59.334316 
	C108.124603,68.826294 115.066124,74.637856 124.821083,77.631821 
	C123.979164,78.274727 122.933769,78.933838 121.887100,78.935860 
	C92.506775,78.992592 63.126328,78.982903 33.393097,78.794189 
	C38.467968,78.604256 43.895641,78.604256 49.878391,78.604256 
	C49.878391,72.372154 49.878391,66.629211 50.190090,60.323341 
	C50.748703,59.545639 50.914711,59.280247 50.999813,58.964237 
z"/>
<path fill="#E6E7FA" opacity="1.000000" stroke="none" 
	d="
M292.199158,78.918327 
	C291.710205,78.850937 291.895477,78.502312 292.245789,78.276489 
	C292.713531,77.706161 292.830994,77.361656 292.948456,77.017159 
	C292.948456,64.431145 292.948456,51.845139 292.948456,38.461323 
	C301.435089,38.461323 309.211182,38.461323 317.757751,38.333366 
	C318.635956,37.815495 318.743713,37.425579 318.851471,37.035667 
	C318.889832,32.653519 318.928162,28.271362 318.954895,23.170666 
	C318.967590,22.279852 318.991913,22.107580 319.016205,21.935308 
	C324.170074,21.782415 329.323944,21.629522 334.757690,21.795216 
	C328.828339,24.780226 323.843170,28.723593 322.098602,35.575420 
	C319.037689,47.597084 327.682220,58.388767 340.731049,58.697350 
	C350.218170,58.921703 359.714813,58.731518 369.207153,58.756496 
	C370.948425,58.761078 372.689301,58.911232 374.430359,58.994194 
	C374.476166,59.497570 374.521973,60.000946 374.567780,60.504322 
	C373.005249,60.745369 371.443634,61.188835 369.880066,61.195618 
	C356.724182,61.252693 343.566040,61.356434 330.413055,61.154415 
	C326.426422,61.093189 324.541565,62.057503 324.961456,66.402061 
	C325.328400,70.198532 325.150330,74.047676 325.347900,78.303703 
	C314.551208,78.817810 303.619659,78.901764 292.199158,78.918327 
z"/>
<path fill="#E3E5FA" opacity="1.000000" stroke="none" 
	d="
M252.119537,38.279900 
	C259.899994,38.279903 267.680450,38.279903 276.252258,38.279903 
	C276.252258,51.582123 276.252258,64.286827 276.198730,77.451149 
	C271.419312,78.270447 266.698700,78.770462 261.965973,78.949089 
	C257.509766,79.117271 253.040833,78.946632 248.081635,78.862038 
	C247.739044,70.383499 247.962860,61.968529 248.027527,53.552334 
	C248.106308,43.298355 248.051178,33.043346 248.057297,22.308228 
	C248.895462,21.658373 249.730316,21.489071 250.764862,21.842295 
	C250.990631,22.572515 251.016693,22.780209 251.042755,22.987900 
	C250.993698,27.354546 250.944641,31.721191 250.977936,36.882339 
	C251.413376,37.877861 251.766449,38.078880 252.119537,38.279900 
z"/>
<path fill="#8890E8" opacity="1.000000" stroke="none" 
	d="
M469.917969,23.548456 
	C462.248962,32.696953 454.551025,41.362938 446.970612,50.130543 
	C439.198364,59.119957 431.541107,68.208817 423.047699,78.176361 
	C423.047699,69.678993 422.674500,62.272713 423.259338,54.942871 
	C423.452209,52.525440 425.916290,50.133923 427.691833,48.025257 
	C434.959412,39.394066 442.362213,30.876734 449.849915,21.986818 
	C455.237427,21.683214 460.493530,21.616901 465.741058,21.799246 
	C467.154388,21.848360 468.541504,22.652819 469.917969,23.548456 
z"/>
<path fill="#E6E7FA" opacity="1.000000" stroke="none" 
	d="
M197.038727,78.841690 
	C196.686371,67.820648 196.832367,56.858532 197.259109,45.311729 
	C197.764633,44.497734 197.929199,44.231236 198.033569,43.927544 
	C207.753693,55.331600 217.473816,66.735657 227.374908,78.437469 
	C217.549591,78.790352 207.543335,78.845474 197.038727,78.841690 
z"/>
<path fill="#E9EAFB" opacity="1.000000" stroke="none" 
	d="
M230.760773,21.771826 
	C231.040710,33.538898 231.040710,44.987644 231.040710,57.531979 
	C220.658752,45.407753 210.898407,34.009468 201.080597,22.273405 
	C204.406845,21.624435 207.789429,21.069910 211.174515,21.054264 
	C217.609192,21.024521 224.045319,21.303011 230.760773,21.771826 
z"/>
<path fill="#E8E9FA" opacity="1.000000" stroke="none" 
	d="
M158.245636,78.218185 
	C161.989349,74.754570 166.563095,72.104042 169.943863,68.372612 
	C183.874008,52.997581 176.509537,28.190983 156.120087,22.557529 
	C157.901443,21.850052 159.891586,21.071417 161.881790,21.071253 
	C167.624207,21.070778 173.366638,21.384104 179.477661,21.746195 
	C179.943802,40.588806 180.041336,59.259418 180.292572,78.363541 
	C173.139908,78.709457 165.833511,78.621857 158.245636,78.218185 
z"/>
<path fill="#878FE8" opacity="1.000000" stroke="none" 
	d="
M412.547668,21.725822 
	C417.931915,26.900587 422.724030,32.196972 427.814636,37.188976 
	C430.229645,39.557251 430.555969,41.263042 428.057526,43.748013 
	C425.610168,46.182182 423.570496,49.026249 420.898010,52.235477 
	C411.455688,42.065742 402.246124,32.146675 393.005127,21.847261 
	C399.341797,21.552134 405.709900,21.637348 412.547668,21.725822 
z"/>
<path fill="#9097EA" opacity="1.000000" stroke="none" 
	d="
M427.660400,78.848213 
	C430.958344,73.600342 434.698700,68.345718 438.439056,63.091091 
	C438.919464,63.313740 439.399841,63.536388 439.880249,63.759037 
	C439.880249,68.475937 439.880249,73.192833 439.794067,78.350357 
	C435.839508,78.807808 431.971130,78.824631 427.660400,78.848213 
z"/>
<path fill="#E0E2F9" opacity="1.000000" stroke="none" 
	d="
M98.433205,21.104681 
	C89.162216,21.377792 79.525017,21.581785 69.887039,21.630157 
	C57.898659,21.690329 45.909626,21.621958 33.457344,21.555157 
	C34.110043,21.296776 35.226192,20.914749 36.342518,20.914221 
	C56.917217,20.904465 77.491936,20.940306 98.433205,21.104681 
z"/>
<path fill="#E0E2F9" opacity="1.000000" stroke="none" 
	d="
M32.285339,22.344690 
	C32.544102,40.360733 32.590641,58.725792 32.606621,77.558357 
	C32.347008,77.255264 31.917332,76.484406 31.918344,75.714111 
	C31.941563,58.040607 32.011707,40.367165 32.285339,22.344690 
z"/>
<path fill="#E0E2F9" opacity="1.000000" stroke="none" 
	d="
M133.614624,78.954376 
	C138.259689,78.752510 143.275085,78.662453 148.628967,78.794365 
	C143.973267,79.032951 138.979111,79.049568 133.614624,78.954376 
z"/>
<path fill="#4350DB" opacity="1.000000" stroke="none" 
	d="
M318.758636,21.839386 
	C318.991913,22.107580 318.967590,22.279852 318.889282,22.707455 
	C318.525452,22.832253 318.294006,22.617311 318.053284,22.092972 
	C318.144135,21.826479 318.322601,21.784971 318.758636,21.839386 
z"/>
<path fill="#414EDB" opacity="1.000000" stroke="none" 
	d="
M251.270767,22.863026 
	C251.016693,22.780209 250.990631,22.572515 250.960968,22.050636 
	C251.141495,21.721596 251.325607,21.706738 251.773621,21.776291 
	C251.857941,22.153185 251.678360,22.445669 251.270767,22.863026 
z"/>
<path fill="#F9F9FE" opacity="1.000000" stroke="none" 
	d="
M197.929184,43.669220 
	C197.929199,44.231236 197.764633,44.497734 197.335983,44.846458 
	C197.363022,44.447548 197.593918,43.929218 197.929184,43.669220 
z"/>
<path fill="#E8E9FA" opacity="1.000000" stroke="none" 
	d="
M133.267303,38.810589 
	C138.229095,38.809975 142.723969,38.752590 147.216827,38.822559 
	C155.249786,38.947662 160.168808,43.273563 160.187775,50.130951 
	C160.206558,56.931847 155.325729,61.114052 147.086273,61.252205 
	C142.593582,61.327541 138.097900,61.316345 133.604767,61.256020 
	C125.277557,61.144230 120.542480,57.219574 120.441093,50.233349 
	C120.349350,43.911304 125.434486,38.265091 133.267303,38.810589 
z"/>
<path fill="#1C258F" opacity="1.000000" stroke="none" 
	d="
M100.137680,58.047363 
	C83.768997,58.089756 67.395691,58.089756 51.022381,58.089756 
	C51.022133,57.725517 51.021885,57.361279 51.021633,56.997040 
	C64.572716,56.997040 78.123894,56.971718 91.674812,57.018993 
	C94.299904,57.028149 96.923996,57.320736 99.873032,57.775322 
	C100.197502,58.068058 100.133049,58.004967 100.137680,58.047363 
z"/>
<path fill="#1D2794" opacity="1.000000" stroke="none" 
	d="
M100.158997,38.158829 
	C100.019722,38.033321 99.883446,37.848572 99.747162,37.663826 
	C99.845520,37.727150 99.943871,37.790466 100.159851,37.990280 
	C100.277466,38.126778 100.161995,38.099590 100.158997,38.158829 
z"/>
<path fill="#1D2794" opacity="1.000000" stroke="none" 
	d="
M50.552773,37.459213 
	C50.587532,37.514431 50.518009,37.403999 50.552773,37.459213 
z"/>
<path fill="#FFFFFF" opacity="1.000000" stroke="none" 
	d="
M50.710495,58.948837 
	C50.914711,59.280247 50.748703,59.545639 50.286934,59.861320 
	C50.188442,59.619301 50.304813,59.276371 50.710495,58.948837 
z"/>
<path fill="#414EDB" opacity="1.000000" stroke="none" 
	d="
M252.003662,38.014996 
	C251.766449,38.078880 251.413376,37.877861 251.046799,37.343536 
	C251.318130,37.256847 251.602951,37.503471 252.003662,38.014996 
z"/>
<path fill="#4350DB" opacity="1.000000" stroke="none" 
	d="
M318.627899,37.184746 
	C318.743713,37.425579 318.635956,37.815495 318.213135,38.242672 
	C318.066803,37.964569 318.235565,37.649197 318.627899,37.184746 
z"/>
<path fill="#3C49DA" opacity="1.000000" stroke="none" 
	d="
M292.727905,77.138504 
	C292.830994,77.361656 292.713531,77.706161 292.311890,78.090500 
	C292.187622,77.840172 292.347504,77.550011 292.727905,77.138504 
z"/>
</svg>