<svg version="1.1" id="Layer_1" xmlns="http://www.w3.org/2000/svg" xmlns:xlink="http://www.w3.org/1999/xlink" x="0px" y="0px"
	 width="100%" viewBox="0 0 192 192" enable-background="new 0 0 192 192" xml:space="preserve">
<path fill="#000000" opacity="1.000000" stroke="none" 
	d="
M84.178558,90.636864 
	C97.154884,90.643272 109.656197,90.758850 122.153671,90.589821 
	C125.996170,90.537857 127.707474,91.690018 127.344749,95.715355 
	C127.076561,98.691559 127.074539,101.728455 127.328880,104.706291 
	C127.696983,109.016083 126.123505,110.591072 121.667511,110.505989 
	C108.839020,110.261040 96.000084,110.570412 83.171120,110.338196 
	C78.663925,110.256615 77.058372,111.574097 77.202408,116.281822 
	C77.533524,127.104675 77.200912,137.946182 77.345375,148.777359 
	C77.391556,152.239380 76.177299,153.560410 72.701614,153.422867 
	C67.709587,153.225357 62.697830,153.227585 57.705822,153.427505 
	C54.035622,153.574493 52.712639,152.165634 52.750473,148.484482 
	C52.887493,135.152802 52.789806,121.818741 52.784546,108.485580 
	C52.776722,88.652504 52.905163,68.817833 52.667850,48.987526 
	C52.612152,44.333023 54.155453,42.903595 58.669388,42.933762 
	C81.501419,43.086372 104.335945,43.113632 127.167328,42.919022 
	C132.039993,42.877487 133.779144,44.596008 133.343704,49.323841 
	C133.054520,52.463875 133.086929,55.668037 133.337112,58.814735 
	C133.670334,63.005829 131.905228,64.326721 127.833496,64.279861 
	C113.002243,64.109200 98.164085,64.392090 83.337006,64.089104 
	C78.416161,63.988552 76.861786,65.612534 77.232887,70.365372 
	C77.595070,75.003815 77.658386,79.724701 77.224686,84.350494 
	C76.737587,89.545723 78.714867,91.451996 84.178558,90.636864 
z"/>
<path fill="#000000" opacity="1.000000" stroke="none" 
	d="
M141.313599,132.138992 
	C148.663284,135.011063 151.596664,140.917648 149.147476,147.246918 
	C146.923676,152.993774 140.091553,155.721375 133.650970,153.433609 
	C127.496170,151.247375 124.672050,145.128021 126.927605,138.865387 
	C128.771866,133.744720 133.664856,131.349213 141.313599,132.138992 
z"/>
</svg>